<?xml version="1.0" encoding="utf-8"?>
<!-- Generator: Adobe Illustrator 17.0.0, SVG Export Plug-In . SVG Version: 6.00 Build 0)  -->
<!DOCTYPE svg PUBLIC "-//W3C//DTD SVG 1.1//EN" "http://www.w3.org/Graphics/SVG/1.1/DTD/svg11.dtd">
<svg version="1.1" xmlns="http://www.w3.org/2000/svg" xmlns:xlink="http://www.w3.org/1999/xlink" x="0px" y="0px" width="500px"
	 height="500px" viewBox="0 0 500 500" enable-background="new 0 0 500 500" xml:space="preserve">
<g id="BACKGROUND" display="none">
	<rect display="inline" fill="#1E2D64" width="500" height="500"/>
</g>
<g id="OBJECTS">
	<g>
		<g>
			<circle fill="#97F4EC" cx="250.082" cy="232.876" r="193.975"/>
			<circle fill="#FFFFFF" cx="250.082" cy="232.876" r="115.456"/>
		</g>
		<g>
			<circle fill="#69C9FF" cx="250.206" cy="232.876" r="77.34"/>
			<path fill="#3D87D7" d="M262.657,156.63c6.671,9.307,10.676,20.582,10.676,32.619c0,30.715-26.124,56.839-56.839,56.839
				c-17.123,0-32.742-8.043-43.262-20.462c-0.222,2.39-0.366,4.803-0.366,7.251c0,42.713,34.626,77.34,77.34,77.34
				c42.713,0,77.34-34.626,77.34-77.34C327.546,194.412,299.436,162.597,262.657,156.63z"/>
			<polygon fill="#00A6FF" points="345.889,284.436 154.275,284.436 174.106,247.419 326.058,247.419 			"/>
			<rect x="154.275" y="284.436" fill="#3D87D7" width="191.614" height="25.78"/>
			<circle fill="#3D87D7" cx="250.082" cy="268.695" r="10.039"/>
			<circle fill="#3D87D7" cx="214.387" cy="268.695" r="10.039"/>
			<circle fill="#3D87D7" cx="178.691" cy="268.695" r="10.039"/>
			<circle fill="#3D87D7" cx="321.473" cy="268.695" r="10.039"/>
			<circle fill="#3D87D7" cx="285.777" cy="268.695" r="10.039"/>
			<circle fill="#69C9FF" cx="250.082" cy="264.729" r="10.039"/>
			<circle fill="#69C9FF" cx="214.387" cy="264.729" r="10.039"/>
			<circle fill="#69C9FF" cx="178.691" cy="264.729" r="10.039"/>
			<circle fill="#69C9FF" cx="321.473" cy="264.729" r="10.039"/>
			<circle fill="#69C9FF" cx="285.777" cy="264.729" r="10.039"/>
		</g>
		<g>
			<circle fill="none" cx="250.206" cy="232.876" r="167.569"/>
			<text transform="matrix(0.4123 0.911 -0.911 0.4123 95.1933 296.8749)"><tspan x="0" y="0" fill="#396FAF" font-family="'Helvetica'" font-size="39.6613">I</tspan><tspan x="12.287" y="-0.047" fill="#396FAF" font-family="'Helvetica'" font-size="39.6613" rotate="-4.216"> </tspan><tspan x="26.23" y="-0.244" fill="#396FAF" font-family="'Helvetica'" font-size="39.6613" rotate="-13.437">W</tspan><tspan x="66.014" y="-10.752" fill="#396FAF" font-family="'Helvetica'" font-size="39.6613" rotate="-25.545">A</tspan><tspan x="92.711" y="-23.725" fill="#396FAF" font-family="'Helvetica'" font-size="39.6613" rotate="-36.02">N</tspan><tspan x="118.11" y="-42.77" fill="#396FAF" font-family="'Helvetica'" font-size="39.6613" rotate="-46.157">T</tspan><tspan x="135.929" y="-62.062" fill="#396FAF" font-family="'Helvetica'" font-size="39.6613" rotate="-52.931"> </tspan><tspan x="144.034" y="-72.352" fill="#396FAF" font-family="'Helvetica'" font-size="39.6613" rotate="-59.669">T</tspan><tspan x="157.902" y="-96.047" fill="#396FAF" font-family="'Helvetica'" font-size="39.6613" rotate="-70.029">O</tspan><tspan x="168.454" y="-127.59" fill="#396FAF" font-family="'Helvetica'" font-size="39.6613" rotate="-78.021"> </tspan><tspan x="171.537" y="-140.456" fill="#396FAF" font-family="'Helvetica'" font-size="39.6613" rotate="-85.219">B</tspan><tspan x="173.724" y="-169.956" fill="#396FAF" font-family="'Helvetica'" font-size="39.6613" rotate="-95.365">E</tspan><tspan x="170.583" y="-199.058" fill="#396FAF" font-family="'Helvetica'" font-size="39.6613" rotate="-104.593">L</tspan><tspan x="164.152" y="-222.143" fill="#396FAF" font-family="'Helvetica'" font-size="39.6613" rotate="-110.863">I</tspan><tspan x="159.773" y="-234.596" fill="#396FAF" font-family="'Helvetica'" font-size="39.6613" rotate="-117.958">V</tspan><tspan x="145.676" y="-260.579" fill="#396FAF" font-family="'Helvetica'" font-size="39.6613" rotate="-128.039">E</tspan></text>
		</g>
		<path fill="#54B5B7" d="M252.728,58.803l4.568,9.255c0.41,0.83,1.202,1.406,2.118,1.538l10.214,1.485
			c2.307,0.335,3.228,3.171,1.559,4.798l-7.391,7.204c-0.663,0.646-0.966,1.577-0.809,2.49l1.745,10.173
			c0.394,2.298-2.018,4.05-4.082,2.965l-9.135-4.803c-0.819-0.431-1.799-0.431-2.618,0l-9.135,4.803
			c-2.064,1.085-4.475-0.667-4.082-2.965l1.745-10.173c0.157-0.912-0.146-1.843-0.809-2.49l-7.391-7.204
			c-1.669-1.627-0.748-4.463,1.559-4.798l10.214-1.485c0.916-0.133,1.708-0.708,2.118-1.538l4.568-9.255
			C248.715,56.712,251.697,56.712,252.728,58.803z"/>
		<path fill="#54B5B7" d="M180.767,78.557l3.76,7.619c0.337,0.683,0.989,1.157,1.744,1.267l8.407,1.222
			c1.899,0.276,2.657,2.61,1.283,3.949l-6.084,5.93c-0.546,0.532-0.795,1.299-0.666,2.05l1.436,8.373
			c0.324,1.891-1.661,3.334-3.359,2.441l-7.52-3.953c-0.675-0.355-1.481-0.355-2.155,0l-7.52,3.953
			c-1.699,0.893-3.684-0.549-3.359-2.441l1.436-8.373c0.129-0.751-0.12-1.517-0.666-2.05l-6.084-5.93
			c-1.374-1.339-0.616-3.673,1.283-3.949l8.407-1.222c0.754-0.11,1.406-0.583,1.743-1.267l3.76-7.619
			C177.464,76.836,179.918,76.836,180.767,78.557z"/>
		<path fill="#54B5B7" d="M127.504,129.6l3.069,6.217c0.275,0.558,0.807,0.944,1.423,1.034l6.861,0.997
			c1.55,0.225,2.169,2.13,1.047,3.223l-4.965,4.84c-0.445,0.434-0.649,1.059-0.543,1.673l1.172,6.833
			c0.265,1.544-1.356,2.721-2.742,1.992l-6.137-3.226c-0.55-0.29-1.208-0.29-1.759,0l-6.137,3.226
			c-1.386,0.729-3.006-0.449-2.742-1.992l1.172-6.833c0.105-0.613-0.098-1.239-0.544-1.673l-4.965-4.84
			c-1.121-1.093-0.503-2.998,1.047-3.223l6.861-0.997c0.616-0.089,1.148-0.476,1.423-1.034l3.068-6.217
			C124.808,128.195,126.811,128.195,127.504,129.6z"/>
		<path fill="#54B5B7" d="M101.563,190.684l1.58,3.201c0.142,0.287,0.416,0.486,0.733,0.532l3.533,0.513
			c0.798,0.116,1.116,1.097,0.539,1.66l-2.556,2.492c-0.23,0.223-0.334,0.545-0.28,0.861l0.604,3.519
			c0.136,0.795-0.698,1.401-1.412,1.026l-3.16-1.661c-0.284-0.149-0.622-0.149-0.905,0l-3.16,1.661
			c-0.714,0.375-1.548-0.231-1.412-1.026l0.603-3.519c0.054-0.316-0.05-0.638-0.28-0.861l-2.557-2.492
			c-0.577-0.563-0.259-1.544,0.539-1.66l3.533-0.513c0.317-0.046,0.591-0.245,0.733-0.532l1.58-3.201
			C100.175,189.961,101.206,189.961,101.563,190.684z"/>
		<path fill="#54B5B7" d="M319.259,78.557l-3.76,7.619c-0.337,0.683-0.989,1.157-1.743,1.267l-8.407,1.222
			c-1.899,0.276-2.658,2.61-1.283,3.949l6.084,5.93c0.546,0.532,0.795,1.299,0.666,2.05l-1.436,8.373
			c-0.324,1.891,1.661,3.334,3.36,2.441l7.52-3.953c0.674-0.355,1.48-0.355,2.155,0l7.52,3.953c1.699,0.893,3.684-0.549,3.36-2.441
			l-1.436-8.373c-0.129-0.751,0.12-1.517,0.666-2.05l6.084-5.93c1.374-1.339,0.616-3.673-1.283-3.949l-8.407-1.222
			c-0.754-0.11-1.406-0.583-1.744-1.267l-3.76-7.619C322.563,76.836,320.109,76.836,319.259,78.557z"/>
		<path fill="#54B5B7" d="M375.912,129.6c-0.693-1.404-2.696-1.404-3.389,0l-3.068,6.217c-0.275,0.558-0.808,0.944-1.423,1.034
			l-6.861,0.997c-1.55,0.225-2.169,2.13-1.047,3.223l4.965,4.84c0.445,0.434,0.648,1.059,0.543,1.673l-1.172,6.833
			c-0.265,1.544,1.355,2.721,2.741,1.992l6.137-3.226c0.55-0.29,1.208-0.29,1.759,0l6.137,3.226
			c1.386,0.729,3.006-0.449,2.742-1.992l-1.172-6.833c-0.105-0.613,0.098-1.239,0.543-1.673l4.965-4.84
			c1.122-1.093,0.503-2.998-1.047-3.223l-6.861-0.997c-0.616-0.089-1.147-0.476-1.423-1.034L375.912,129.6z"/>
		<path fill="#54B5B7" d="M398.464,190.684l-1.58,3.201c-0.142,0.287-0.416,0.486-0.733,0.532l-3.533,0.513
			c-0.798,0.116-1.116,1.097-0.539,1.66l2.557,2.492c0.229,0.223,0.334,0.545,0.28,0.861l-0.604,3.519
			c-0.136,0.795,0.698,1.401,1.412,1.026l3.16-1.661c0.284-0.149,0.622-0.149,0.906,0l3.16,1.661
			c0.714,0.375,1.548-0.231,1.412-1.026l-0.604-3.519c-0.054-0.316,0.05-0.638,0.28-0.861l2.557-2.492
			c0.577-0.563,0.259-1.544-0.539-1.66l-3.533-0.513c-0.317-0.046-0.591-0.245-0.733-0.532l-1.58-3.201
			C399.852,189.961,398.821,189.961,398.464,190.684z"/>
	</g>
</g>
<g id="DESIGNED_BY_FREEPIK">
</g>
</svg>
