<?xml version="1.0" encoding="utf-8"?>
<!-- Generator: Adobe Illustrator 17.0.0, SVG Export Plug-In . SVG Version: 6.00 Build 0)  -->
<!DOCTYPE svg PUBLIC "-//W3C//DTD SVG 1.1//EN" "http://www.w3.org/Graphics/SVG/1.1/DTD/svg11.dtd">
<svg version="1.1" xmlns="http://www.w3.org/2000/svg" xmlns:xlink="http://www.w3.org/1999/xlink" x="0px" y="0px" width="387px"
	 height="373px" viewBox="0 0 387 373" enable-background="new 0 0 387 373" xml:space="preserve">
<g id="BACKGROUND">
</g>
<g id="OBJECTS">
	<circle fill="#7ACDFF" cx="197" cy="190" r="175"/>
	<g>
		<linearGradient id="SVGID_1_" gradientUnits="userSpaceOnUse" x1="16.8485" y1="366.8991" x2="120.0832" y2="269.6588">
			<stop  offset="0" style="stop-color:#FF8533"/>
			<stop  offset="0.9964" style="stop-color:#FFD052"/>
		</linearGradient>
		<path fill="url(#SVGID_1_)" d="M121.226,265.566c0,0-60.811-22.814-73.828,36.36l12.848-2.561c0,0-15.055,17.314-20.392,50.149
			c32.653-6.358,49.489-21.945,49.489-21.945l-2.16,12.922C145.924,325.637,121.226,265.566,121.226,265.566z"/>
		<linearGradient id="SVGID_2_" gradientUnits="userSpaceOnUse" x1="64.0295" y1="322.8422" x2="127.6624" y2="260.2356">
			<stop  offset="0.0036" style="stop-color:#FFD052"/>
			<stop  offset="1" style="stop-color:#FFE9AE"/>
		</linearGradient>
		<path fill="url(#SVGID_2_)" d="M121.226,265.566c0,0-37.932-14.231-46.051,22.68l8.014-1.598c0,0-9.391,10.8-12.72,31.281
			c20.367-3.966,30.869-13.689,30.869-13.689l-1.347,8.06C136.632,303.036,121.226,265.566,121.226,265.566z"/>
		<linearGradient id="SVGID_3_" gradientUnits="userSpaceOnUse" x1="182.8603" y1="291.3223" x2="123.2907" y2="193.9489">
			<stop  offset="0" style="stop-color:#767B7F"/>
			<stop  offset="1" style="stop-color:#A3A3A3"/>
		</linearGradient>
		<polygon fill="url(#SVGID_3_)" points="164.209,262.546 122.712,221.49 134.147,209.984 175.644,251.041 		"/>
		<linearGradient id="SVGID_4_" gradientUnits="userSpaceOnUse" x1="93.9981" y1="186.4599" x2="189.4566" y2="295.5555">
			<stop  offset="0.0036" style="stop-color:#F02E54"/>
			<stop  offset="1" style="stop-color:#8F1931"/>
		</linearGradient>
		<path fill="url(#SVGID_4_)" d="M154.205,155.487c0,0-38.541-2.847-54.354,13.056c-17.063,17.16-31.195,38.158-42.606,68.17
			c-6.089,16.015,9.99-0.538,20.656-10.288c18.673-17.069,27.878-16.723,45.656-12.65
			C123.558,213.775,133.143,194.159,154.205,155.487z"/>
		<path opacity="0.33" fill="#FFFFFF" d="M154.205,155.487c0,0-38.541-2.847-54.354,13.056
			c-17.063,17.16-31.195,38.158-42.606,68.17c-1.142,3.003-1.504,4.861-1.269,5.833c0,0,16.405-38.018,34.378-56.622
			S120.309,160.365,154.205,155.487"/>
		<linearGradient id="SVGID_5_" gradientUnits="userSpaceOnUse" x1="195.0439" y1="321.8685" x2="164.3649" y2="167.271">
			<stop  offset="0.0036" style="stop-color:#F02E54"/>
			<stop  offset="1" style="stop-color:#8F1931"/>
		</linearGradient>
		<path fill="url(#SVGID_5_)" d="M230.322,230.797c0,0,3.178,38.429-12.627,54.34c-17.055,17.169-37.981,31.445-67.962,43.082
			c-15.999,6.21,0.455-9.972,10.137-20.696c16.949-18.774,16.525-27.955,12.294-45.658
			C172.163,261.864,191.741,252.136,230.322,230.797z"/>
		<linearGradient id="SVGID_6_" gradientUnits="userSpaceOnUse" x1="223.0368" y1="91.4578" x2="293.6577" y2="258.2509">
			<stop  offset="0.0036" style="stop-color:#EEF4FA"/>
			<stop  offset="1" style="stop-color:#CDDEED"/>
		</linearGradient>
		<path fill="url(#SVGID_6_)" d="M351.692,85.799c6.407-41.533-1.759-51.302-1.759-51.302s-9.86-8.065-51.431-1.324
			c-43.908,7.12-71.777,34.117-90.755,52.885c-24.554,24.282-65.048,80.156-84.189,127.717l24.428,23.918l24.177,24.171
			c47.505-19.498,103.162-60.37,127.291-85.072C318.104,157.7,344.925,129.667,351.692,85.799z"/>
		<linearGradient id="SVGID_7_" gradientUnits="userSpaceOnUse" x1="232.6804" y1="109.9507" x2="292.5925" y2="251.4518">
			<stop  offset="0.0036" style="stop-color:#EEF4FA"/>
			<stop  offset="1" style="stop-color:#CDDEED"/>
		</linearGradient>
		<path fill="url(#SVGID_7_)" d="M129.754,219.842l18.232,17.851l24.177,24.171c47.505-19.498,103.162-60.37,127.291-85.072
			c18.65-19.093,45.472-47.126,52.238-90.993c6.407-41.533-1.759-51.302-1.759-51.302"/>
		
			<line opacity="0.09" fill="none" stroke="#000000" stroke-width="1.8919" stroke-miterlimit="10" x1="127.015" y1="217.16" x2="168.609" y2="258.311"/>
		<linearGradient id="SVGID_8_" gradientUnits="userSpaceOnUse" x1="120.0094" y1="178.2029" x2="183.7503" y2="256.8469">
			<stop  offset="0" style="stop-color:#C7C7C7"/>
			<stop  offset="1" style="stop-color:#A3A3A3"/>
		</linearGradient>
		<path fill="url(#SVGID_8_)" d="M123.558,213.775l24.428,23.918l24.177,24.171c9.601-3.941,19.536-8.765,29.475-14.142
			l-64.155-63.475C132.178,194.21,127.427,204.163,123.558,213.775z"/>
		<linearGradient id="SVGID_9_" gradientUnits="userSpaceOnUse" x1="166.3767" y1="216.7293" x2="179.4199" y2="256.9457">
			<stop  offset="0" style="stop-color:#1D262D"/>
			<stop  offset="1" style="stop-color:#1D262D;stop-opacity:0"/>
		</linearGradient>
		<polygon fill="url(#SVGID_9_)" points="188.708,199.342 172.163,261.864 167.449,258.762 164.209,262.546 148.095,246.603 		"/>
		
			<line fill="none" stroke="#000000" stroke-width="1.8919" stroke-miterlimit="10" x1="262.42" y1="44.532" x2="340.612" y2="121.895"/>
		<linearGradient id="SVGID_10_" gradientUnits="userSpaceOnUse" x1="307.3875" y1="47.8113" x2="439.1876" y2="153.5191">
			<stop  offset="0.0036" style="stop-color:#F02E54"/>
			<stop  offset="1" style="stop-color:#8F1931"/>
		</linearGradient>
		<path fill="url(#SVGID_10_)" d="M349.933,34.497c0,0-9.86-8.065-51.431-1.324c-13.47,2.185-25.425,6.245-36.082,11.359
			l78.192,77.363c5.036-10.676,9.004-22.638,11.08-36.096C358.099,44.267,349.933,34.497,349.933,34.497z"/>
		<g>
			<defs>
				<path id="SVGID_11_" d="M351.692,85.799c6.407-41.533-1.759-51.302-1.759-51.302s-9.86-8.065-51.431-1.324
					c-43.908,7.12-71.777,34.117-90.755,52.885c-24.554,24.282-65.048,80.156-84.189,127.717l24.428,23.918l24.177,24.171
					c47.505-19.498,103.162-60.37,127.291-85.072C318.104,157.7,344.925,129.667,351.692,85.799z"/>
			</defs>
			<clipPath id="SVGID_12_">
				<use xlink:href="#SVGID_11_"  overflow="visible"/>
			</clipPath>
			<linearGradient id="SVGID_13_" gradientUnits="userSpaceOnUse" x1="475.6814" y1="276.9118" x2="231.6816" y2="23.9123">
				<stop  offset="0" style="stop-color:#8F1931"/>
				<stop  offset="0.9964" style="stop-color:#F02E54"/>
			</linearGradient>
			<polygon clip-path="url(#SVGID_12_)" fill="url(#SVGID_13_)" points="340.936,138.583 246.801,46.375 250.771,42.32 
				344.907,134.529 			"/>
			<linearGradient id="SVGID_14_" gradientUnits="userSpaceOnUse" x1="468.2647" y1="284.0656" x2="224.265" y2="31.0662">
				<stop  offset="0" style="stop-color:#8F1931"/>
				<stop  offset="0.9964" style="stop-color:#F02E54"/>
			</linearGradient>
			<polygon clip-path="url(#SVGID_12_)" fill="url(#SVGID_14_)" points="335.159,146.076 241.023,53.867 243.672,51.164 
				337.808,143.373 			"/>
		</g>
		
			<line opacity="0.09" fill="none" stroke="#000000" stroke-width="1.8919" stroke-miterlimit="10" x1="137.475" y1="184.244" x2="201.638" y2="247.723"/>
		<linearGradient id="SVGID_15_" gradientUnits="userSpaceOnUse" x1="118.3046" y1="218.1467" x2="193.0342" y2="325.0383">
			<stop  offset="0.0036" style="stop-color:#F02E54"/>
			<stop  offset="1" style="stop-color:#8F1931"/>
		</linearGradient>
		<path fill="url(#SVGID_15_)" d="M188.375,197.054c0,0-3.582-5.547-38.201,29.287c-34.62,34.833-64.144,68.201-61.393,70.923
			c2.751,2.722,35.944-27.016,70.563-61.849C193.964,200.581,188.375,197.054,188.375,197.054z"/>
		<path opacity="0.33" fill="#FFFFFF" d="M188.375,197.054c0,0-3.582-5.547-38.201,29.287
			c-34.62,34.833-64.144,68.201-61.393,70.923c0,0,9.679-13.908,35.659-41.577C150.422,228.018,180.214,197.779,188.375,197.054z"/>
		<g>
			<linearGradient id="SVGID_16_" gradientUnits="userSpaceOnUse" x1="247.983" y1="163.3097" x2="274.9652" y2="219.8038">
				<stop  offset="0" style="stop-color:#1D262D"/>
				<stop  offset="0.6767" style="stop-color:#1D262D;stop-opacity:0.3233"/>
				<stop  offset="1" style="stop-color:#1D262D;stop-opacity:0"/>
			</linearGradient>
			<circle fill="url(#SVGID_16_)" cx="239.716" cy="146" r="43.082"/>
			<circle fill="#D4D4D4" cx="239.389" cy="144.707" r="42.842"/>
			<linearGradient id="SVGID_17_" gradientUnits="userSpaceOnUse" x1="220.293" y1="99.3252" x2="273.2936" y2="223.3147">
				<stop  offset="0" style="stop-color:#C7C7C7"/>
				<stop  offset="1" style="stop-color:#A3A3A3"/>
			</linearGradient>
			<circle fill="url(#SVGID_17_)" cx="239.916" cy="145.232" r="42.316"/>
			<path fill="#76C9F0" d="M215.862,168.187c-12.947-12.84-13.034-33.821-0.194-46.768c12.84-12.947,33.821-13.034,46.768-0.194
				c12.947,12.84,13.034,33.821,0.194,46.768C249.79,180.94,228.809,181.027,215.862,168.187z"/>
			<linearGradient id="SVGID_18_" gradientUnits="userSpaceOnUse" x1="213.9807" y1="106.5192" x2="276.6179" y2="202.2418">
				<stop  offset="0" style="stop-color:#ADE5FF"/>
				<stop  offset="1" style="stop-color:#76C9F0"/>
			</linearGradient>
			<path fill="url(#SVGID_18_)" d="M217.049,167.878c-12.421-12.319-12.505-32.448-0.186-44.869
				c12.319-12.421,32.448-12.505,44.869-0.186c12.421,12.318,12.504,32.448,0.186,44.869
				C249.599,180.113,229.47,180.197,217.049,167.878z"/>
			<g>
				<defs>
					<path id="SVGID_19_" d="M217.049,167.878c-12.421-12.319-12.505-32.448-0.186-44.869c12.319-12.421,32.448-12.505,44.869-0.186
						c12.421,12.318,12.504,32.448,0.186,44.869C249.599,180.113,229.47,180.197,217.049,167.878z"/>
				</defs>
				<clipPath id="SVGID_20_">
					<use xlink:href="#SVGID_19_"  overflow="visible"/>
				</clipPath>
				<linearGradient id="SVGID_21_" gradientUnits="userSpaceOnUse" x1="269.9919" y1="118.9749" x2="203.0325" y2="163.3128">
					<stop  offset="0" style="stop-color:#F9FBFC"/>
					<stop  offset="1" style="stop-color:#F9FBFC;stop-opacity:0"/>
				</linearGradient>
				<polygon clip-path="url(#SVGID_20_)" fill="url(#SVGID_21_)" points="268.628,120.257 198.297,151.317 203.338,162.732 
					273.669,131.671 				"/>
				<linearGradient id="SVGID_22_" gradientUnits="userSpaceOnUse" x1="278.5724" y1="131.9331" x2="211.613" y2="176.271">
					<stop  offset="0" style="stop-color:#F9FBFC"/>
					<stop  offset="1" style="stop-color:#F9FBFC;stop-opacity:0"/>
				</linearGradient>
				<polygon clip-path="url(#SVGID_20_)" fill="url(#SVGID_22_)" points="275.642,137.916 205.312,168.976 207.849,174.721 
					278.179,143.661 				"/>
			</g>
			<g>
				<g>
					<circle fill="#A3A3A3" cx="210.603" cy="120.505" r="1.807"/>
					<circle fill="#A3A3A3" cx="204.322" cy="130.398" r="1.807"/>
					<circle fill="#A3A3A3" cx="217.723" cy="113.672" r="1.807"/>
					<circle fill="#A3A3A3" cx="203.082" cy="153.366" r="1.807"/>
					<circle fill="#A3A3A3" cx="206.946" cy="164.429" r="1.807"/>
					<circle fill="#A3A3A3" cx="202.348" cy="141.785" r="1.807"/>
					<circle fill="#A3A3A3" cx="223.506" cy="179.738" r="1.807"/>
					<circle fill="#A3A3A3" cx="234.606" cy="183.495" r="1.807"/>
					<circle fill="#A3A3A3" cx="213.922" cy="173.195" r="1.807"/>
					<circle fill="#A3A3A3" cx="257.082" cy="179.637" r="1.807"/>
					<circle fill="#A3A3A3" cx="266.352" cy="173.347" r="1.807"/>
					<circle fill="#A3A3A3" cx="246.136" cy="182.713" r="1.807"/>
					<circle fill="#A3A3A3" cx="276.269" cy="153.761" r="1.807"/>
					<circle fill="#A3A3A3" cx="277.485" cy="143.029" r="1.807"/>
					<circle fill="#A3A3A3" cx="272.591" cy="164.494" r="1.807"/>
					<circle fill="#A3A3A3" cx="270.244" cy="122.022" r="1.807"/>
					<circle fill="#A3A3A3" cx="262.04" cy="113.865" r="1.807"/>
					<circle fill="#A3A3A3" cx="275.041" cy="132.095" r="1.807"/>
					<circle fill="#A3A3A3" cx="239.291" cy="107.206" r="1.807"/>
					<circle fill="#A3A3A3" cx="228.084" cy="109.167" r="1.807"/>
					<circle fill="#A3A3A3" cx="250.986" cy="108.859" r="1.807"/>
				</g>
				<g>
					<circle fill="#D4D4D4" cx="210.223" cy="120.125" r="1.807"/>
					<circle fill="#D4D4D4" cx="203.942" cy="130.018" r="1.807"/>
					<circle fill="#D4D4D4" cx="217.343" cy="113.292" r="1.807"/>
					<circle fill="#D4D4D4" cx="202.702" cy="152.986" r="1.807"/>
					<circle fill="#D4D4D4" cx="206.566" cy="164.049" r="1.807"/>
					<circle fill="#D4D4D4" cx="201.968" cy="141.405" r="1.807"/>
					<circle fill="#D4D4D4" cx="223.126" cy="179.358" r="1.807"/>
					<circle fill="#D4D4D4" cx="234.226" cy="183.115" r="1.807"/>
					<circle fill="#D4D4D4" cx="213.542" cy="172.815" r="1.807"/>
					<circle fill="#D4D4D4" cx="256.702" cy="179.257" r="1.807"/>
					<circle fill="#D4D4D4" cx="265.972" cy="172.967" r="1.807"/>
					<circle fill="#D4D4D4" cx="245.756" cy="182.333" r="1.807"/>
					<circle fill="#D4D4D4" cx="275.889" cy="153.381" r="1.807"/>
					<circle fill="#D4D4D4" cx="277.105" cy="142.649" r="1.807"/>
					<circle fill="#D4D4D4" cx="272.211" cy="164.114" r="1.807"/>
					<circle fill="#D4D4D4" cx="269.864" cy="121.642" r="1.807"/>
					<circle fill="#D4D4D4" cx="261.66" cy="113.485" r="1.807"/>
					<circle fill="#D4D4D4" cx="274.661" cy="131.715" r="1.807"/>
					<circle fill="#D4D4D4" cx="238.911" cy="106.826" r="1.807"/>
					<circle fill="#D4D4D4" cx="227.704" cy="108.787" r="1.807"/>
					<circle fill="#D4D4D4" cx="250.606" cy="108.479" r="1.807"/>
				</g>
				<g>
					
						<rect x="208.537" y="119.944" transform="matrix(0.7071 -0.7071 0.7071 0.7071 -23.3683 183.8338)" fill="#B9B9B9" width="3.373" height="0.361"/>
					
						<rect x="202.255" y="129.838" transform="matrix(0.7071 -0.7071 0.7071 0.7071 -32.2038 182.2902)" fill="#B9B9B9" width="3.373" height="0.361"/>
					
						<rect x="215.656" y="113.112" transform="matrix(0.7071 -0.7071 0.7071 0.7071 -16.4516 186.8671)" fill="#B9B9B9" width="3.373" height="0.361"/>
					
						<rect x="201.015" y="152.805" transform="matrix(0.7071 -0.7071 0.7071 0.7071 -48.8072 188.1403)" fill="#B9B9B9" width="3.373" height="0.361"/>
					
						<rect x="204.879" y="163.868" transform="matrix(0.7071 -0.7071 0.7071 0.7071 -55.4992 194.1075)" fill="#B9B9B9" width="3.373" height="0.361"/>
					
						<rect x="200.281" y="141.224" transform="matrix(0.7071 -0.7071 0.7071 0.7071 -40.8335 184.2293)" fill="#B9B9B9" width="3.373" height="0.361"/>
					
						<rect x="221.439" y="179.178" transform="matrix(0.7071 -0.7071 0.7071 0.7071 -61.4735 210.3064)" fill="#B9B9B9" width="3.373" height="0.361"/>
					
						<rect x="232.54" y="182.934" transform="matrix(0.7071 -0.7071 0.7071 0.7071 -60.8786 219.2559)" fill="#B9B9B9" width="3.373" height="0.361"/>
					
						<rect x="211.856" y="172.635" transform="matrix(0.7071 -0.7071 0.7071 0.7071 -59.6539 201.6135)" fill="#B9B9B9" width="3.373" height="0.361"/>
					
						<rect x="255.016" y="179.077" transform="matrix(0.7071 -0.7071 0.7071 0.7071 -51.5677 234.0193)" fill="#B9B9B9" width="3.373" height="0.361"/>
					
						<rect x="264.285" y="172.786" transform="matrix(0.7071 -0.7071 0.7071 0.7071 -44.406 238.7247)" fill="#B9B9B9" width="3.373" height="0.361"/>
					
						<rect x="244.07" y="182.153" transform="matrix(0.7071 -0.7071 0.7071 0.7071 -56.949 227.1799)" fill="#B9B9B9" width="3.373" height="0.361"/>
					
						<rect x="274.203" y="153.201" transform="matrix(0.7071 -0.7071 0.7071 0.7071 -27.6508 240.0083)" fill="#B9B9B9" width="3.373" height="0.361"/>
					
						<rect x="275.419" y="142.468" transform="matrix(0.7071 -0.7071 0.7071 0.7071 -19.7056 237.724)" fill="#B9B9B9" width="3.373" height="0.361"/>
					
						<rect x="270.525" y="163.933" transform="matrix(0.7071 -0.7071 0.7071 0.7071 -36.3159 240.556)" fill="#B9B9B9" width="3.373" height="0.361"/>
					
						<rect x="268.178" y="121.462" transform="matrix(0.7071 -0.7071 0.7071 0.7071 -6.9729 226.4509)" fill="#B9B9B9" width="3.373" height="0.361"/>
					
						<rect x="259.974" y="113.305" transform="matrix(0.7071 -0.7071 0.7071 0.7071 -3.6079 218.2606)" fill="#B9B9B9" width="3.373" height="0.361"/>
					
						<rect x="272.975" y="131.535" transform="matrix(0.7071 -0.7071 0.7071 0.7071 -12.6904 232.7933)" fill="#B9B9B9" width="3.373" height="0.361"/>
					
						<rect x="237.224" y="106.645" transform="matrix(0.7071 -0.7071 0.7071 0.7071 -5.5619 200.224)" fill="#B9B9B9" width="3.373" height="0.361"/>
					
						<rect x="226.018" y="108.606" transform="matrix(0.7071 -0.7071 0.7071 0.7071 -10.2311 192.8741)" fill="#B9B9B9" width="3.373" height="0.361"/>
					
						<rect x="248.919" y="108.298" transform="matrix(0.7071 -0.7071 0.7071 0.7071 -3.3056 208.9777)" fill="#B9B9B9" width="3.373" height="0.361"/>
				</g>
			</g>
		</g>
		<path opacity="0.33" fill="#FFFFFF" d="M349.933,34.497c0,0-9.86-8.065-51.431-1.324c-43.908,7.12-71.777,34.117-90.755,52.885
			c-24.554,24.282-65.048,80.156-84.189,127.717l0,0C123.558,213.775,211.908,28.424,349.933,34.497z"/>
		<polygon opacity="0.33" fill="#FFFFFF" points="128.616,218.694 124.245,222.988 122.712,221.49 127.015,217.16 		"/>
		<g opacity="0.48">
			<defs>
				<path id="SVGID_23_" opacity="0.48" d="M351.692,85.799c6.407-41.533-1.759-51.302-1.759-51.302s-9.86-8.065-51.431-1.324
					c-43.908,7.12-71.777,34.117-90.755,52.885c-19.591,19.374-49.328,58.858-70.272,98.186
					c-5.306,9.964-10.048,19.917-13.917,29.531l24.428,23.918l24.177,24.171c47.505-19.498,103.162-60.37,127.291-85.072
					C318.104,157.7,344.925,129.667,351.692,85.799z"/>
			</defs>
			<clipPath id="SVGID_24_">
				<use xlink:href="#SVGID_23_"  overflow="visible"/>
			</clipPath>
			<linearGradient id="SVGID_25_" gradientUnits="userSpaceOnUse" x1="399.4097" y1="235.3249" x2="254.9954" y2="145.1447">
				<stop  offset="0" style="stop-color:#1D262D"/>
				<stop  offset="1" style="stop-color:#1D262D;stop-opacity:0"/>
			</linearGradient>
			<path clip-path="url(#SVGID_24_)" fill="url(#SVGID_25_)" d="M172.163,261.864c0,0,176.268-89.335,177.77-227.367l49.745,21.832
				L235.051,309.843C235.051,309.843,201.865,297.381,172.163,261.864z"/>
		</g>
		<linearGradient id="SVGID_26_" gradientUnits="userSpaceOnUse" x1="192.784" y1="229.8139" x2="207.7313" y2="263.2996">
			<stop  offset="0" style="stop-color:#1D262D"/>
			<stop  offset="1" style="stop-color:#1D262D;stop-opacity:0"/>
		</linearGradient>
		<path fill="url(#SVGID_26_)" d="M172.163,261.864l3.481,12.663c0,0,33.899-16.712,54.678-43.731l0,0
			C230.322,230.797,192.8,253.3,172.163,261.864z"/>
		<path opacity="0.33" fill="#FFFFFF" d="M156.807,312.681c10.421-10.208,14.33-20.071,15.013-21.955
			c-0.156,0.396-0.508,1.174-1.272,2.458c-2.324,4.269-5.768,8.9-10.678,14.339c-6.257,6.931-15.332,16.134-16.657,20.106
			c-0.247,0.844-0.123,1.386,0.257,1.73c0.003,0.002,0.004,0.005,0.007,0.006C143.483,329.341,145.245,324.006,156.807,312.681z"/>
	</g>
</g>
<g id="DESIGNED_BY_FREEPIK">
</g>
</svg>
